<?xml version="1.0" encoding="utf-8"?>

<!-- License Agreement at http://iconmonstr.com/license/ -->

<!DOCTYPE svg PUBLIC "-//W3C//DTD SVG 1.1//EN" "http://www.w3.org/Graphics/SVG/1.1/DTD/svg11.dtd">
<svg version="1.1" xmlns="http://www.w3.org/2000/svg" xmlns:xlink="http://www.w3.org/1999/xlink" x="0px" y="0px"
	 width="512px" height="512px" viewBox="0 0 512 512" enable-background="new 0 0 512 512" xml:space="preserve">
<path id="pen-7-icon" d="M256,50C142.229,50,50,142.229,50,256c0,113.77,92.229,206,206,206s206-92.23,206-206
	C462,142.229,369.771,50,256,50z M241.751,197.856l48.505-48.505c5.549-5.55,14.396-5.694,19.943-0.149l-68.594,68.594
	C236.057,212.249,236.205,203.403,241.751,197.856z M161.755,365.167c-2.283,2.286-5.986,2.286-8.27,0.002
	c-2.284-2.285-2.284-5.985,0-8.269l8.566-8.568l8.272,8.271L161.755,365.167z M238.753,318.009
	c-17.429,17.428-34.178,26.192-57.498,34.162l-14.77-14.771c7.967-23.32,16.733-40.071,34.161-57.501l29.872-29.871l38.107,38.11
	L238.753,318.009z M359.234,202.843l-76.245,76.249l-43.424-43.428l76.246-76.246c11.989-11.991,31.433-11.991,43.424,0
	C371.227,171.41,371.227,190.851,359.234,202.843z"/>
</svg>
