<?xml version="1.0" encoding="utf-8"?>

<!-- License Agreement at http://iconmonstr.com/license/ -->

<!DOCTYPE svg PUBLIC "-//W3C//DTD SVG 1.1//EN" "http://www.w3.org/Graphics/SVG/1.1/DTD/svg11.dtd">
<svg version="1.1" xmlns="http://www.w3.org/2000/svg" xmlns:xlink="http://www.w3.org/1999/xlink" x="0px" y="0px"
	 width="512px" height="512px" viewBox="0 0 512 512" enable-background="new 0 0 512 512" xml:space="preserve">
<path id="pen-8-icon" d="M256,90c44.341,0,86.026,17.268,117.38,48.62C404.733,169.974,422,211.66,422,256
	s-17.267,86.026-48.62,117.379C342.026,404.732,300.341,422,256,422s-86.026-17.268-117.38-48.621C107.267,342.026,90,300.34,90,256
	s17.267-86.026,48.62-117.38C169.974,107.268,211.659,90,256,90z M256,50C142.229,50,50,142.229,50,256c0,113.77,92.229,206,206,206
	s206-92.23,206-206C462,142.229,369.771,50,256,50z M280.69,276.783l-39.081-39.086l68.621-68.621
	c10.79-10.792,28.289-10.792,39.082,0c10.792,10.793,10.792,28.289-0.001,39.082L280.69,276.783z M233.367,250.726l-26.785,26.784
	c-15.685,15.687-23.575,30.762-30.745,51.75l13.293,13.294c20.988-7.173,36.062-15.062,51.748-30.746l26.786-26.782L233.367,250.726
	z M179.292,346.542l-7.445-7.443l-7.71,7.712c-2.056,2.055-2.056,5.385,0,7.441c2.056,2.056,5.388,2.056,7.443-0.002
	L179.292,346.542z M305.18,159.882c-4.992-4.99-12.955-4.86-17.949,0.134l-43.654,43.655c-4.991,4.992-5.125,12.953-0.131,17.945
	L305.18,159.882z"/>
</svg>
