<?xml version="1.0" encoding="utf-8"?>

<!-- License Agreement at http://iconmonstr.com/license/ -->

<!DOCTYPE svg PUBLIC "-//W3C//DTD SVG 1.1//EN" "http://www.w3.org/Graphics/SVG/1.1/DTD/svg11.dtd">
<svg version="1.1" xmlns="http://www.w3.org/2000/svg" xmlns:xlink="http://www.w3.org/1999/xlink" x="0px" y="0px"
	 width="512px" height="512px" viewBox="0 0 512 512" enable-background="new 0 0 512 512" xml:space="preserve">
<path id="tools-6-icon" d="M390.295,165.085c-9.318,0-16.875-7.555-16.875-16.875c0-9.318,7.557-16.873,16.875-16.873
	c9.317,0,16.874,7.555,16.874,16.873C407.169,157.53,399.612,165.085,390.295,165.085z M425.908,379.259L236.054,189.403
	c-9.129-9.129-13.83-21.822-12.834-34.693c1.885-24.383-6.492-49.408-25.142-68.057c-24.156-24.156-59.197-31.203-89.753-20.637
	l55.194,55.195c1.265,21.521-32.008,54.816-53.56,53.559l-55.192-55.193c-10.514,30.398-3.639,65.479,20.635,89.754
	c16.935,16.936,39.13,25.398,61.326,25.398c6.129,0,25.101-3.748,41.424,12.574l189.856,189.855
	c15.985,15.986,41.908,15.99,57.899,0C441.896,421.171,441.896,395.247,425.908,379.259z M394.962,422.585
	c-9.318,0-16.875-7.555-16.875-16.875c0-9.318,7.557-16.873,16.875-16.873c9.317,0,16.874,7.555,16.874,16.873
	C411.836,415.03,404.279,422.585,394.962,422.585z M303.736,217.466l7.07-7.07l-12.777-12.779l7.679-7.678l12.778,12.777l7.07-7.07
	l-12.777-12.779l7.429-7.428l12.736,12.736l7.07-7.07l-12.735-12.738l7.679-7.678l12.736,12.736l7.07-7.07l-12.735-12.738
	l48.685-48.684l43.002,43.002l-99.767,99.768l14.143,14.141L462,147.935l-71.286-71.287l-113.908,113.91L303.736,217.466z
	 M236.451,345.2l-77.268,77.268l-43.003-43.002l11.352-11.35l12.787,12.787l7.07-7.07l-12.787-12.789l7.73-7.73l12.777,12.777
	l7.07-7.07l-12.776-12.777l7.679-7.68l12.777,12.777l7.07-7.07l-12.776-12.777l7.429-7.43l12.735,12.734l7.07-7.07l-12.734-12.734
	l7.679-7.68l12.735,12.734l7.07-7.07l-26.832-26.922l-91.41,91.41l71.287,71.285l91.409-91.41L236.451,345.2z"/>
</svg>
